<svg xmlns="http://www.w3.org/2000/svg" xmlns:xlink="http://www.w3.org/1999/xlink" version="1.1" xml:space="preserve">
  <defs>
    <g id="logo">
      <g id="bulb">
        <path d="M18 16.5c-9.5 9.1-9.7 24-0.5 33.4 4.5 4.5 10.4 7 16.9 7.1 0.2 0 0.7 0.2 0.9 0.4 1.4 1.3 5 4.2 9.8 4.5 0 0.3 0.1 0.6 0.2 0.9 0.5 1.3 1.7 2.3 2.9 2.6 0.6 1.3 1.7 2.2 2.9 2.5 0 0 0 0 0 0 0.8 1.9 2.8 3.1 4.7 2.7 0.1 0 1.5-0.3 3.6-1.2 0.2 0.2 1.9 2.2 4.8 2.4 2 0.1 4-0.7 5.9-2.4 0 0 0.1-0.1 0.1-0.1 1.8-1.7 2.6-3.5 2.6-5.5 -0.1-2.8-2-4.5-2.4-4.8 0.9-1.9 1.3-3.2 1.3-3.5 0.4-1.9-0.7-3.9-2.6-4.7 0 0 0 0 0 0 -0.3-1.2-1.2-2.4-2.5-2.9 -0.3-1.3-1.2-2.4-2.6-3 -0.3-0.1-0.5-0.2-0.8-0.2 -0.2-4.7-3-8.3-4.3-9.8 -0.2-0.2-0.4-0.7-0.4-0.9 0.1-6.3-2.3-12.3-6.7-16.8C42.6 7.6 27.4 7.4 18 16.5zM69.3 64.3c0 0.8-0.5 1.7-1.4 2.5 -1 0.9-1.9 1.4-2.8 1.3 -0.5 0-1-0.2-1.4-0.5 0.5-0.4 1.1-0.8 1.6-1.2 0.5-0.4 0.9-0.8 1-0.9 0 0 0 0 0 0 0 0 0 0 0 0 0.1-0.1 0.5-0.5 0.9-1 0.5-0.6 0.9-1.1 1.3-1.6C69 63.3 69.3 63.8 69.3 64.3zM65.6 51.7c-0.2 0.6-0.1 1.2 0.3 1.7 0.6 0.8 1.5 0.9 2.1 0.9 0.1 0.1 0.2 0.2 0.3 0.2 0 0-0.8 3.4-3.9 6.9 -0.4 0.4-0.7 0.7-0.8 0.8 -0.1 0.1-0.4 0.4-0.8 0.7 -3.6 2.9-7 3.7-7 3.7 0 0 0 0 0 0 -0.1 0-0.2-0.1-0.3-0.4 0-0.4-0.1-1.3-0.9-2 -0.5-0.4-1.2-0.5-1.8-0.3l0 0c-0.1 0-0.2-0.1-0.3-0.3 0-0.5-0.1-1.3-0.9-1.9 -0.3-0.2-0.7-0.4-1.1-0.4 1.6-0.6 4.5-1.8 7.3-4.5l0.7-0.6c1.1-1.1 2-2.3 2.7-3.3 0.1-0.2 0.3-0.4 0.4-0.6 0.2-0.4 0.4-0.7 0.6-1 0.1-0.2 0.3-0.5 0.4-0.7 0.3-0.5 0.5-1 0.6-1.4 0 0.4 0.1 0.8 0.3 1.1 0.5 0.8 1.4 0.9 2 1 0.1 0.1 0.2 0.2 0.2 0.2l0 0L65.6 51.7z" style="fill:none;stroke-width:2;stroke:#FFF"/>
        <line x1="33.3" y1="60.3" x2="31.2" y2="67.8" style="fill:none;stroke-linecap:round;stroke-width:2;stroke:#FFF"/>
        <line x1="23.3" y1="57.8" x2="20" y2="64.7" style="fill:none;stroke-linecap:round;stroke-width:2;stroke:#FFF"/>
        <line x1="14.5" y1="51.8" x2="9.2" y2="58.2" style="fill:none;stroke-linecap:round;stroke-width:2;stroke:#FFF"/>
        <line x1="9.7" y1="43.5" x2="2.2" y2="47" style="fill:none;stroke-linecap:round;stroke-width:2;stroke:#FFF"/>
        <line x1="7.7" y1="33.5" x2="1" y2="33.2" style="fill:none;stroke-linecap:round;stroke-width:2;stroke:#FFF"/>
        <line x1="9.7" y1="22.8" x2="2.7" y2="19.2" style="fill:none;stroke-linecap:round;stroke-width:2;stroke:#FFF"/>
        <line x1="61.5" y1="32.7" x2="69" y2="30.5" style="fill:none;stroke-linecap:round;stroke-width:2;stroke:#FFF"/>
        <line x1="59.3" y1="22.3" x2="66.2" y2="19" style="fill:none;stroke-linecap:round;stroke-width:2;stroke:#FFF"/>
        <line x1="53" y1="13.7" x2="59.3" y2="8.3" style="fill:none;stroke-linecap:round;stroke-width:2;stroke:#FFF"/>
        <line x1="44.5" y1="9" x2="47.7" y2="2.3" style="fill:none;stroke-linecap:round;stroke-width:2;stroke:#FFF"/>
        <line x1="34.3" y1="6.8" x2="34.5" y2="1" style="fill:none;stroke-linecap:round;stroke-width:2;stroke:#FFF"/>
        <line x1="24.5" y1="8.8" x2="21.3" y2="2.5" style="fill:none;stroke-linecap:round;stroke-width:2;stroke:#FFF"/>
        <line x1="15.3" y1="14.7" x2="10" y2="9" style="fill:none;stroke-linecap:round;stroke-width:2;stroke:#FFF"/>
      </g>
      <g id="buzz">
        <path d="M25.8 42.8c0.1 0.2 0.1 0.5 0.1 0.7 0 1.2-0.4 2.2-1.1 3.1s-1.6 1.3-2.6 1.3c-0.7 0-1.3-0.2-1.8-0.7 -0.5-0.5-0.7-1.1-0.7-1.9 0-0.6 0.1-1.4 0.3-2.4l1.1-6c-0.2 0-0.4 0.1-0.5 0.1 -0.9 0-1.4-0.5-1.4-1.6 0.3 0.3 0.7 0.4 1.3 0.4 0.5 0 1.2-0.2 2.1-0.5L21 43.7c-0.1 0.6-0.1 1.1-0.1 1.5 0 0.6 0.1 1.1 0.4 1.4s0.6 0.5 1.1 0.5c0.7 0 1.2-0.3 1.7-1 0.5-0.7 0.7-1.5 0.7-2.5 0-0.5-0.1-0.9-0.2-1.4 -0.5-0.2-1-0.5-1.3-0.8 -0.3-0.3-0.5-0.6-0.5-0.9 0-0.2 0.1-0.4 0.2-0.6 1.1 0.1 2 0.7 2.6 1.7 0.5 0.3 1.1 0.4 1.7 0.4 0.6 0 1.2-0.2 1.9-0.6l0.3 0.6C28.7 42.7 27.9 43 27 43 26.6 43 26.2 42.9 25.8 42.8zM33.4 43.4c-0.6 1.4-1.2 2.5-1.9 3.3 -0.7 0.8-1.4 1.3-1.9 1.3 -0.5 0-0.8-0.2-1.1-0.5C28.1 47 28 46.5 28 46c0-0.7 0.2-2.1 0.7-4.1 0.1-0.5 0.2-0.9 0.2-1 0-0.1 0-0.3-0.1-0.5l0.9 0c0.4 0 0.6 0.2 0.6 0.5 0 0.2-0.1 0.8-0.4 1.8 -0.1 0.3-0.1 0.5-0.1 0.6l-0.1 0.4c-0.2 0.9-0.3 1.5-0.3 2 0 0.7 0.2 1.1 0.6 1.1 0.7 0 1.6-1 2.7-2.9 0.9-1.6 1.3-2.7 1.3-3.4 0-0.1 0-0.2-0.1-0.3 0.3-0.1 0.6-0.2 0.9-0.2 0.4 0 0.6 0.1 0.6 0.4 0 0.1 0 0.2-0.1 0.3 0 0.1-0.1 0.2-0.1 0.5 0 0.1-0.1 0.2-0.1 0.6 -0.1 0.2-0.1 0.4-0.1 0.6l-0.1 0.3c-0.1 0.8-0.2 1.5-0.2 2.2 0 1 0.2 1.6 0.7 1.6 1 0 2.2-1.6 3.8-4.7l0.5 0.4c-1.7 3.7-3.3 5.6-4.7 5.6 -1 0-1.4-0.9-1.4-2.8C33.4 44.4 33.4 43.9 33.4 43.4zM43.4 46.7c0.1 0.4 0.2 0.8 0.2 1 0 1.2-0.4 2.3-1.1 3.3 -0.8 1-1.6 1.5-2.6 1.5 -0.6 0-1-0.2-1.4-0.5S38 51.3 38 50.8c0-1 1.3-2.3 3.9-4.1 -0.3-0.2-0.7-0.3-1.1-0.3 -0.6 0-1.3 0.2-1.9 0.5 0-0.1 0-0.2 0-0.3 0-0.6 0.2-1 0.6-1.2 0.2-0.4 0.7-1 1.3-1.9l1.6-2.2c-0.4 0.1-0.9 0.2-1.3 0.3l-0.5 0.1c-0.9 0.1-1.5 0.4-1.8 0.8 0.1-0.9 0.3-1.5 0.6-1.7 0.3-0.3 0.8-0.4 1.7-0.4h0.6c0.8 0 1.4-0.2 1.7-0.5 0.2 0.3 0.2 0.5 0.2 0.8 0 0.3-0.2 0.7-0.5 1.2 -0.1 0.1-0.5 0.7-1.3 1.8l-1 1.5c0.3 0 0.5-0.1 0.7-0.1 0.7 0 1.2 0.2 1.7 0.7 1.6-1.2 3-2.7 4.1-4.4l0.5 0.4C46.7 43.6 45.3 45.2 43.4 46.7zM42.4 47.4c-2.2 1.6-3.3 2.8-3.3 3.5 0 0.3 0.1 0.5 0.3 0.7 0.2 0.2 0.4 0.3 0.7 0.3 0.6 0 1.2-0.4 1.7-1.1 0.6-0.7 0.8-1.5 0.8-2.3C42.7 48.1 42.6 47.7 42.4 47.4zM51.4 46.7c0.1 0.4 0.2 0.8 0.2 1 0 1.2-0.4 2.3-1.1 3.3s-1.6 1.5-2.6 1.5c-0.6 0-1-0.2-1.4-0.5 -0.4-0.3-0.5-0.7-0.5-1.2 0-1 1.3-2.3 3.9-4.1 -0.3-0.2-0.7-0.3-1.1-0.3 -0.6 0-1.3 0.2-1.9 0.5 0-0.1 0-0.2 0-0.3 0-0.6 0.2-1 0.6-1.2 0.2-0.4 0.7-1 1.3-1.9l1.6-2.2c-0.4 0.1-0.9 0.2-1.3 0.3l-0.5 0.1c-0.9 0.1-1.5 0.4-1.8 0.8 0.1-0.9 0.3-1.5 0.6-1.7 0.3-0.3 0.8-0.4 1.7-0.4h0.6c0.8 0 1.4-0.2 1.7-0.5 0.2 0.3 0.2 0.5 0.2 0.8 0 0.3-0.2 0.7-0.5 1.2 -0.1 0.1-0.5 0.7-1.3 1.8l-1 1.5c0.3 0 0.5-0.1 0.7-0.1 0.7 0 1.2 0.2 1.7 0.7 1.6-1.2 3.7-3.5 4.8-5.3l0.5 0.4C55.4 42.7 53.3 45.2 51.4 46.7zM50.4 47.4c-2.2 1.6-3.3 2.8-3.3 3.5 0 0.3 0.1 0.5 0.3 0.7 0.2 0.2 0.4 0.3 0.7 0.3 0.6 0 1.2-0.4 1.7-1.1 0.6-0.7 0.8-1.5 0.8-2.3C50.7 48.1 50.6 47.7 50.4 47.4z" style="fill:#FFF;stroke:#FFF"/>
      </g>
      <g id="wgi">
        <path d="M32.6 19.3L36 34c0.1 0.4 0.5 0.7 0.9 0.7h3.5c0.4 0 0.6-0.3 0.5-0.7l-3.4-14.7c-0.1-0.4-0.5-0.7-0.9-0.7h-3.5C32.7 18.6 32.5 18.9 32.6 19.3zM41 18.7c-0.4 0-0.6 0.3-0.5 0.7l2.2 7.1c0.1-0.3 0.4-0.7 0.5-1.2 1-2.4 3-5.8 2.4-6.3 -0.2-0.1 0 0-0.2-0.2 -0.3-0.2-0.6-0.2-1-0.2H41zM23.9 19.3L27.3 34c0.1 0.4 0.5 0.7 0.9 0.7h3.5c0.4 0 0.6-0.3 0.5-0.7l-3.4-14.7c-0.1-0.4-0.5-0.7-0.8-0.7h-3.5C24 18.6 23.8 18.9 23.9 19.3z" fill="#FFF"/>
      </g>
    </g>
  </defs>
</svg>
